<?xml version="1.0" encoding="UTF-8" standalone="no"?>
<!-- Created with Inkscape (http://www.inkscape.org/) -->

<svg
        xmlns:dc="http://purl.org/dc/elements/1.1/"
        xmlns:cc="http://creativecommons.org/ns#"
        xmlns:rdf="http://www.w3.org/1999/02/22-rdf-syntax-ns#"
        xmlns:svg="http://www.w3.org/2000/svg"
        xmlns="http://www.w3.org/2000/svg"
        xmlns:sodipodi="http://sodipodi.sourceforge.net/DTD/sodipodi-0.dtd"
        xmlns:inkscape="http://www.inkscape.org/namespaces/inkscape"
        width="210mm"
        height="297mm"
        viewBox="0 0 210 297"
        version="1.1"
        id="svg8"
        inkscape:version="0.92.4 (5da689c313, 2019-01-14)"
        sodipodi:docname="kaed.svg">
    <defs
            id="defs2"/>
    <sodipodi:namedview
            id="base"
            pagecolor="#ffffff"
            bordercolor="#666666"
            borderopacity="1.0"
            inkscape:pageopacity="0.0"
            inkscape:pageshadow="2"
            inkscape:zoom="0.175"
            inkscape:cx="1791.5732"
            inkscape:cy="-447.03318"
            inkscape:document-units="px"
            inkscape:current-layer="layer1"
            showgrid="false"
            showborder="false"
            inkscape:object-nodes="true"
            inkscape:snap-global="true"
            inkscape:object-paths="true"
            inkscape:window-width="1920"
            inkscape:window-height="1005"
            inkscape:window-x="0"
            inkscape:window-y="0"
            inkscape:window-maximized="1"/>
    <metadata
            id="metadata5">
        <rdf:RDF>
            <cc:Work
                    rdf:about="">
                <dc:format>image/svg+xml</dc:format>
                <dc:type
                        rdf:resource="http://purl.org/dc/dcmitype/StillImage"/>
                <dc:title></dc:title>
            </cc:Work>
        </rdf:RDF>
    </metadata>
    <g
            inkscape:label="Layer 1"
            inkscape:groupmode="layer"
            id="layer1">
        <g
                id="g968"
                transform="translate(-650.11905,-84.666667)"
                inkscape:export-xdpi="86.15358"
                inkscape:export-ydpi="86.15358">
            <path
                    id="path961"
                    transform="scale(0.26458333)"
                    d="m 830,-111.76562 c -23.74284,0 -42.85742,19.11455 -42.85742,42.857417 V 779.66211 h 85.71484 V -68.908203 c 0,-23.742867 -19.11454,-42.857417 -42.85742,-42.857417 z"
                    style="opacity:1;fill:#000080;fill-opacity:1;stroke:none;stroke-width:30.00000191;stroke-miterlimit:4;stroke-dasharray:none"
                    inkscape:connector-curvature="0"/>
            <path
                    id="path959"
                    transform="scale(0.26458333)"
                    d="M 947.85742,-8.9082031 C 924.11454,-8.9082031 905,10.20635 905,33.949219 V 779.66211 h 85.71484 V 33.949219 c 0,-23.742869 -19.11454,-42.8574221 -42.85742,-42.8574221 z"
                    style="opacity:1;fill:#0066ff;fill-opacity:1;stroke:none;stroke-width:30.00000191;stroke-miterlimit:4;stroke-dasharray:none"
                    inkscape:connector-curvature="0"/>
            <path
                    id="path957"
                    transform="scale(0.26458333)"
                    d="m 712.14258,-0.33789062 c -23.74288,0 -42.85742,19.11455462 -42.85742,42.85742162 V 779.66211 H 755 V 42.519531 C 755,18.776664 735.88546,-0.33789062 712.14258,-0.33789062 Z"
                    style="opacity:1;fill:#0066ff;fill-opacity:1;stroke:none;stroke-width:30.00000191;stroke-miterlimit:4;stroke-dasharray:none"
                    inkscape:connector-curvature="0"/>
            <path
                    id="path955"
                    transform="scale(0.26458333)"
                    d="m 594.28516,222.51953 c -23.74288,0 -42.85743,19.11455 -42.85743,42.85742 v 514.28516 h 85.71485 V 265.37695 c 0,-23.74287 -19.11458,-42.85742 -42.85742,-42.85742 z"
                    style="opacity:1;fill:#000080;fill-opacity:1;stroke:none;stroke-width:30.00000191;stroke-miterlimit:4;stroke-dasharray:none"
                    inkscape:connector-curvature="0"/>
            <path
                    id="rect925"
                    transform="scale(0.26458333)"
                    d="m 1065.7148,405.37695 c -23.7428,0 -42.8574,19.11458 -42.8574,42.85743 v 331.42773 h 85.7149 V 448.23438 c 0,-23.74285 -19.1146,-42.85743 -42.8575,-42.85743 z"
                    style="opacity:1;fill:#000080;fill-opacity:1;stroke:none;stroke-width:30.00000191;stroke-miterlimit:4;stroke-dasharray:none"
                    inkscape:connector-curvature="0"/>
        </g>
        <g
                transform="matrix(-1,0,0,1,32.505956,-79.375001)"
                id="g980"
                inkscape:export-xdpi="86.153587"
                inkscape:export-ydpi="86.153587">
            <path
                    inkscape:connector-curvature="0"
                    style="opacity:1;fill:#000080;fill-opacity:1;stroke:none;stroke-width:30.00000191;stroke-miterlimit:4;stroke-dasharray:none"
                    d="m 830,-111.76562 c -23.74284,0 -42.85742,19.11455 -42.85742,42.857417 V 779.66211 h 85.71484 V -68.908203 c 0,-23.742867 -19.11454,-42.857417 -42.85742,-42.857417 z"
                    transform="scale(0.26458333)"
                    id="path970"/>
            <path
                    inkscape:connector-curvature="0"
                    style="opacity:1;fill:#0066ff;fill-opacity:1;stroke:none;stroke-width:30.00000191;stroke-miterlimit:4;stroke-dasharray:none"
                    d="M 947.85742,-8.9082031 C 924.11454,-8.9082031 905,10.20635 905,33.949219 V 779.66211 h 85.71484 V 33.949219 c 0,-23.742869 -19.11454,-42.8574221 -42.85742,-42.8574221 z"
                    transform="scale(0.26458333)"
                    id="path972"/>
            <path
                    inkscape:connector-curvature="0"
                    style="opacity:1;fill:#0066ff;fill-opacity:1;stroke:none;stroke-width:30.00000191;stroke-miterlimit:4;stroke-dasharray:none"
                    d="m 712.14258,-0.33789062 c -23.74288,0 -42.85742,19.11455462 -42.85742,42.85742162 V 779.66211 H 755 V 42.519531 C 755,18.776664 735.88546,-0.33789062 712.14258,-0.33789062 Z"
                    transform="scale(0.26458333)"
                    id="path974"/>
            <path
                    inkscape:connector-curvature="0"
                    style="opacity:1;fill:#000080;fill-opacity:1;stroke:none;stroke-width:30.00000191;stroke-miterlimit:4;stroke-dasharray:none"
                    d="m 594.28516,222.51953 c -23.74288,0 -42.85743,19.11455 -42.85743,42.85742 v 514.28516 h 85.71485 V 265.37695 c 0,-23.74287 -19.11458,-42.85742 -42.85742,-42.85742 z"
                    transform="scale(0.26458333)"
                    id="path976"/>
            <path
                    inkscape:connector-curvature="0"
                    style="opacity:1;fill:#000080;fill-opacity:1;stroke:none;stroke-width:30.00000191;stroke-miterlimit:4;stroke-dasharray:none"
                    d="m 1065.7148,405.37695 c -23.7428,0 -42.8574,19.11458 -42.8574,42.85743 v 331.42773 h 85.7149 V 448.23438 c 0,-23.74285 -19.1146,-42.85743 -42.8575,-42.85743 z"
                    transform="scale(0.26458333)"
                    id="path978"/>
        </g>
        <g
                id="g1131"
                inkscape:export-xdpi="86.153587"
                inkscape:export-ydpi="86.153587">
            <path
                    id="path1013"
                    d="m 858.46014,177.56661 c 6.28196,0 11.33935,5.05739 11.33935,11.33936 V 413.42353 H 847.12078 V 188.90597 c 0,-6.28197 5.05739,-11.33936 11.33936,-11.33936 z"
                    style="opacity:1;fill:#000080;fill-opacity:1;stroke:none;stroke-width:7.93750048;stroke-miterlimit:4;stroke-dasharray:none"
                    inkscape:connector-curvature="0"/>
            <path
                    id="path1015"
                    d="m 827.27703,204.78097 c 6.28197,0 11.33936,5.05739 11.33936,11.33936 v 197.3032 h -22.67872 v -197.3032 c 0,-6.28197 5.05739,-11.33936 11.33936,-11.33936 z"
                    style="opacity:1;fill:#0066ff;fill-opacity:1;stroke:none;stroke-width:7.93750048;stroke-miterlimit:4;stroke-dasharray:none"
                    inkscape:connector-curvature="0"/>
            <path
                    id="path1017"
                    d="m 889.64324,207.04853 c 6.28198,0 11.33936,5.05739 11.33936,11.33936 V 413.42353 H 878.30389 V 218.38789 c 0,-6.28197 5.05738,-11.33936 11.33935,-11.33936 z"
                    style="opacity:1;fill:#ffffff;fill-opacity:1;stroke:none;stroke-width:7.93750048;stroke-miterlimit:4;stroke-dasharray:none"
                    inkscape:connector-curvature="0"/>
            <path
                    id="path1019"
                    d="m 920.82635,266.01289 c 6.28197,0 11.33936,5.05739 11.33936,11.33936 V 413.42353 H 909.48699 V 277.35225 c 0,-6.28197 5.0574,-11.33936 11.33936,-11.33936 z"
                    style="opacity:1;fill:#000080;fill-opacity:1;stroke:none;stroke-width:7.93750048;stroke-miterlimit:4;stroke-dasharray:none"
                    inkscape:connector-curvature="0"/>
            <path
                    id="path1021"
                    d="m 796.09393,314.39391 c 6.28195,0 11.33935,5.0574 11.33935,11.33936 v 87.69026 h -22.67873 v -87.69026 c 0,-6.28196 5.0574,-11.33936 11.33938,-11.33936 z"
                    style="opacity:1;fill:#000080;fill-opacity:1;stroke:none;stroke-width:7.93750048;stroke-miterlimit:4;stroke-dasharray:none"
                    inkscape:connector-curvature="0"/>
        </g>
        <g
                id="g1095"
                inkscape:export-xdpi="86.153587"
                inkscape:export-ydpi="86.153587">
            <path
                    inkscape:connector-curvature="0"
                    style="opacity:1;fill:#ffffff;fill-opacity:1;stroke:none;stroke-width:7.93750048;stroke-miterlimit:4;stroke-dasharray:none"
                    d="m 616.84854,176.49754 c 6.28196,0 11.33935,5.05739 11.33935,11.33936 V 412.35446 H 605.50918 V 187.8369 c 0,-6.28197 5.05739,-11.33936 11.33936,-11.33936 z"
                    id="path1025"/>
            <path
                    inkscape:connector-curvature="0"
                    style="opacity:1;fill:#0066ff;fill-opacity:1;stroke:none;stroke-width:7.93750048;stroke-miterlimit:4;stroke-dasharray:none"
                    d="m 585.66543,203.7119 c 6.28197,0 11.33936,5.05739 11.33936,11.33936 v 197.3032 h -22.67872 v -197.3032 c 0,-6.28197 5.05739,-11.33936 11.33936,-11.33936 z"
                    id="path1027"/>
            <path
                    inkscape:connector-curvature="0"
                    style="opacity:1;fill:#0066ff;fill-opacity:1;stroke:none;stroke-width:7.93750048;stroke-miterlimit:4;stroke-dasharray:none"
                    d="m 648.03164,205.97946 c 6.28198,0 11.33936,5.05739 11.33936,11.33936 V 412.35446 H 636.69229 V 217.31882 c 0,-6.28197 5.05738,-11.33936 11.33935,-11.33936 z"
                    id="path1029"/>
            <path
                    inkscape:connector-curvature="0"
                    style="opacity:1;fill:#000080;fill-opacity:1;stroke:none;stroke-width:7.93750048;stroke-miterlimit:4;stroke-dasharray:none"
                    d="m 679.21475,264.94382 c 6.28197,0 11.33936,5.05739 11.33936,11.33936 V 412.35446 H 667.87539 V 276.28318 c 0,-6.28197 5.0574,-11.33936 11.33936,-11.33936 z"
                    id="path1031"/>
            <path
                    inkscape:connector-curvature="0"
                    style="opacity:1;fill:#000080;fill-opacity:1;stroke:none;stroke-width:7.93750048;stroke-miterlimit:4;stroke-dasharray:none"
                    d="m 554.48233,313.32484 c 6.28195,0 11.33935,5.0574 11.33935,11.33936 v 87.69026 H 543.14295 V 324.6642 c 0,-6.28196 5.0574,-11.33936 11.33938,-11.33936 z"
                    id="path1033"/>
        </g>
        <g
                id="g1083"
                inkscape:export-xdpi="86.153587"
                inkscape:export-ydpi="86.153587">
            <path
                    id="path1037"
                    d="m 382.72043,173.2903 c 6.28196,0 11.33935,5.05739 11.33935,11.33936 V 409.14722 H 371.38107 V 184.62966 c 0,-6.28197 5.05739,-11.33936 11.33936,-11.33936 z"
                    style="opacity:1;fill:#000080;fill-opacity:1;stroke:none;stroke-width:7.93750048;stroke-miterlimit:4;stroke-dasharray:none"
                    inkscape:connector-curvature="0"/>
            <path
                    id="path1039"
                    d="m 351.53732,200.50466 c 6.28197,0 11.33936,5.05739 11.33936,11.33936 v 197.3032 h -22.67872 v -197.3032 c 0,-6.28197 5.05739,-11.33936 11.33936,-11.33936 z"
                    style="opacity:1;fill:#ffffff;fill-opacity:1;stroke:none;stroke-width:7.93750048;stroke-miterlimit:4;stroke-dasharray:none"
                    inkscape:connector-curvature="0"/>
            <path
                    id="path1041"
                    d="m 413.90353,202.77222 c 6.28198,0 11.33936,5.05739 11.33936,11.33936 V 409.14722 H 402.56418 V 214.11158 c 0,-6.28197 5.05738,-11.33936 11.33935,-11.33936 z"
                    style="opacity:1;fill:#0066ff;fill-opacity:1;stroke:none;stroke-width:7.93750048;stroke-miterlimit:4;stroke-dasharray:none"
                    inkscape:connector-curvature="0"/>
            <path
                    id="path1043"
                    d="m 445.08664,261.73658 c 6.28197,0 11.33936,5.05739 11.33936,11.33936 V 409.14722 H 433.74728 V 273.07594 c 0,-6.28197 5.0574,-11.33936 11.33936,-11.33936 z"
                    style="opacity:1;fill:#000080;fill-opacity:1;stroke:none;stroke-width:7.93750048;stroke-miterlimit:4;stroke-dasharray:none"
                    inkscape:connector-curvature="0"/>
            <path
                    id="path1045"
                    d="m 320.35422,310.1176 c 6.28195,0 11.33935,5.0574 11.33935,11.33936 v 87.69026 h -22.67873 v -87.69026 c 0,-6.28196 5.0574,-11.33936 11.33938,-11.33936 z"
                    style="opacity:1;fill:#000080;fill-opacity:1;stroke:none;stroke-width:7.93750048;stroke-miterlimit:4;stroke-dasharray:none"
                    inkscape:connector-curvature="0"/>
        </g>
        <g
                id="g1071"
                inkscape:export-xdpi="86.153587"
                inkscape:export-ydpi="86.153587">
            <path
                    inkscape:connector-curvature="0"
                    style="opacity:1;fill:#000080;fill-opacity:1;stroke:none;stroke-width:7.93750048;stroke-miterlimit:4;stroke-dasharray:none"
                    d="m 149.6614,163.6686 c 6.28196,0 11.33935,5.05739 11.33935,11.33936 V 399.52552 H 138.32204 V 175.00796 c 0,-6.28197 5.05739,-11.33936 11.33936,-11.33936 z"
                    id="path1049"/>
            <path
                    inkscape:connector-curvature="0"
                    style="opacity:1;fill:#0066ff;fill-opacity:1;stroke:none;stroke-width:7.93750048;stroke-miterlimit:4;stroke-dasharray:none"
                    d="m 118.47829,190.88296 c 6.28197,0 11.33936,5.05739 11.33936,11.33936 v 197.3032 h -22.67872 v -197.3032 c 0,-6.28197 5.05739,-11.33936 11.33936,-11.33936 z"
                    id="path1051"/>
            <path
                    inkscape:connector-curvature="0"
                    style="opacity:1;fill:#0066ff;fill-opacity:1;stroke:none;stroke-width:7.93750048;stroke-miterlimit:4;stroke-dasharray:none"
                    d="m 180.8445,193.15052 c 6.28198,0 11.33936,5.05739 11.33936,11.33936 V 399.52552 H 169.50515 V 204.48988 c 0,-6.28197 5.05738,-11.33936 11.33935,-11.33936 z"
                    id="path1053"/>
            <path
                    inkscape:connector-curvature="0"
                    style="opacity:1;fill:#000080;fill-opacity:1;stroke:none;stroke-width:7.93750048;stroke-miterlimit:4;stroke-dasharray:none"
                    d="m 212.02761,252.11488 c 6.28197,0 11.33936,5.05739 11.33936,11.33936 V 399.52552 H 200.68825 V 263.45424 c 0,-6.28197 5.0574,-11.33936 11.33936,-11.33936 z"
                    id="path1055"/>
            <path
                    inkscape:connector-curvature="0"
                    style="opacity:1;fill:#ffffff;fill-opacity:1;stroke:none;stroke-width:7.93750048;stroke-miterlimit:4;stroke-dasharray:none"
                    d="m 87.295189,300.4959 c 6.281949,0 11.339354,5.0574 11.339354,11.33936 v 87.69026 H 75.955809 v -87.69026 c 0,-6.28196 5.057405,-11.33936 11.33938,-11.33936 z"
                    id="path1057"/>
        </g>
        <g
                id="g1124"
                inkscape:export-xdpi="86.153587"
                inkscape:export-ydpi="86.153587">
            <path
                    id="path1102"
                    d="m 1093.6573,178.63569 c 6.282,0 11.3394,5.05739 11.3394,11.33936 V 414.49261 H 1082.318 V 189.97505 c 0,-6.28197 5.0574,-11.33936 11.3393,-11.33936 z"
                    style="opacity:1;fill:#000080;fill-opacity:1;stroke:none;stroke-width:7.93750048;stroke-miterlimit:4;stroke-dasharray:none"
                    inkscape:connector-curvature="0"/>
            <path
                    id="path1104"
                    d="m 1062.4742,205.85005 c 6.282,0 11.3394,5.05739 11.3394,11.33936 v 197.3032 h -22.6787 v -197.3032 c 0,-6.28197 5.0574,-11.33936 11.3393,-11.33936 z"
                    style="opacity:1;fill:#0066ff;fill-opacity:1;stroke:none;stroke-width:7.93750048;stroke-miterlimit:4;stroke-dasharray:none"
                    inkscape:connector-curvature="0"/>
            <path
                    id="path1106"
                    d="m 1124.8404,208.11761 c 6.282,0 11.3394,5.05739 11.3394,11.33936 v 195.03564 h -22.6787 V 219.45697 c 0,-6.28197 5.0574,-11.33936 11.3393,-11.33936 z"
                    style="opacity:1;fill:#0066ff;fill-opacity:1;stroke:none;stroke-width:7.93750048;stroke-miterlimit:4;stroke-dasharray:none"
                    inkscape:connector-curvature="0"/>
            <path
                    id="path1108"
                    d="m 1156.0236,267.08197 c 6.2819,0 11.3393,5.05739 11.3393,11.33936 v 136.07128 h -22.6787 V 278.42133 c 0,-6.28197 5.0574,-11.33936 11.3394,-11.33936 z"
                    style="opacity:1;fill:#ffffff;fill-opacity:1;stroke:none;stroke-width:7.93750048;stroke-miterlimit:4;stroke-dasharray:none"
                    inkscape:connector-curvature="0"/>
            <path
                    id="path1110"
                    d="m 1031.2911,315.46299 c 6.282,0 11.3394,5.0574 11.3394,11.33936 v 87.69026 h -22.6788 v -87.69026 c 0,-6.28196 5.0575,-11.33936 11.3394,-11.33936 z"
                    style="opacity:1;fill:#000080;fill-opacity:1;stroke:none;stroke-width:7.93750048;stroke-miterlimit:4;stroke-dasharray:none"
                    inkscape:connector-curvature="0"/>
        </g>
        <g
                id="g1203"
                inkscape:export-xdpi="86.153587"
                inkscape:export-ydpi="86.153587">
            <path
                    inkscape:connector-curvature="0"
                    style="opacity:1;fill:#000080;fill-opacity:1;stroke:none;stroke-width:7.93750048;stroke-miterlimit:4;stroke-dasharray:none"
                    d="m 160.63988,501.10725 c -6.28196,0 -11.33936,5.05739 -11.33936,11.33936 v 224.51756 h 22.67872 V 512.44661 c 0,-6.28197 -5.05739,-11.33936 -11.33936,-11.33936 z"
                    id="path1133"/>
            <path
                    inkscape:connector-curvature="0"
                    style="opacity:1;fill:#0066ff;fill-opacity:1;stroke:none;stroke-width:7.93750048;stroke-miterlimit:4;stroke-dasharray:none"
                    d="m 191.82299,528.32161 c -6.28197,0 -11.33936,5.05739 -11.33936,11.33936 v 197.3032 h 22.67871 v -197.3032 c 0,-6.28197 -5.05738,-11.33936 -11.33935,-11.33936 z"
                    id="path1135"/>
            <path
                    inkscape:connector-curvature="0"
                    style="opacity:1;fill:#0066ff;fill-opacity:1;stroke:none;stroke-width:7.93750048;stroke-miterlimit:4;stroke-dasharray:none"
                    d="m 129.45677,530.58917 c -6.28197,0 -11.33936,5.05739 -11.33936,11.33936 v 195.03564 h 22.67872 V 541.92853 c 0,-6.28197 -5.05739,-11.33936 -11.33936,-11.33936 z"
                    id="path1137"/>
            <path
                    inkscape:connector-curvature="0"
                    style="opacity:1;fill:#000080;fill-opacity:1;stroke:none;stroke-width:7.93750048;stroke-miterlimit:4;stroke-dasharray:none"
                    d="m 98.27366,589.55353 c -6.281971,0 -11.339362,5.05739 -11.339362,11.33936 V 736.96417 H 109.61302 V 600.89289 c 0,-6.28197 -5.0574,-11.33936 -11.33936,-11.33936 z"
                    id="path1139"/>
            <path
                    inkscape:connector-curvature="0"
                    style="opacity:1;fill:#ffffff;fill-opacity:1;stroke:none;stroke-width:7.93750048;stroke-miterlimit:4;stroke-dasharray:none"
                    d="m 223.00608,637.93455 c -6.28195,0 -11.33935,5.0574 -11.33935,11.33936 v 87.69026 h 22.67873 v -87.69026 c 0,-6.28196 -5.0574,-11.33936 -11.33938,-11.33936 z"
                    id="path1141"/>
        </g>
        <g
                id="g1215"
                inkscape:export-xdpi="86.153587"
                inkscape:export-ydpi="86.153587">
            <path
                    id="path1145"
                    d="m 402.54464,510.17868 c -6.28196,0 -11.33935,5.05739 -11.33935,11.33936 V 746.0356 H 413.884 V 521.51804 c 0,-6.28197 -5.05739,-11.33936 -11.33936,-11.33936 z"
                    style="opacity:1;fill:#000080;fill-opacity:1;stroke:none;stroke-width:7.93750048;stroke-miterlimit:4;stroke-dasharray:none"
                    inkscape:connector-curvature="0"/>
            <path
                    id="path1147"
                    d="m 433.72775,537.39304 c -6.28197,0 -11.33936,5.05739 -11.33936,11.33936 v 197.3032 h 22.67872 V 548.7324 c 0,-6.28197 -5.05739,-11.33936 -11.33936,-11.33936 z"
                    style="opacity:1;fill:#ffffff;fill-opacity:1;stroke:none;stroke-width:7.93750048;stroke-miterlimit:4;stroke-dasharray:none"
                    inkscape:connector-curvature="0"/>
            <path
                    id="path1149"
                    d="m 371.36154,539.6606 c -6.28198,0 -11.33936,5.05739 -11.33936,11.33936 V 746.0356 h 22.67871 V 550.99996 c 0,-6.28197 -5.05738,-11.33936 -11.33935,-11.33936 z"
                    style="opacity:1;fill:#0066ff;fill-opacity:1;stroke:none;stroke-width:7.93750048;stroke-miterlimit:4;stroke-dasharray:none"
                    inkscape:connector-curvature="0"/>
            <path
                    id="path1151"
                    d="m 340.17843,598.62496 c -6.28197,0 -11.33936,5.05739 -11.33936,11.33936 V 746.0356 h 22.67872 V 609.96432 c 0,-6.28197 -5.0574,-11.33936 -11.33936,-11.33936 z"
                    style="opacity:1;fill:#000080;fill-opacity:1;stroke:none;stroke-width:7.93750048;stroke-miterlimit:4;stroke-dasharray:none"
                    inkscape:connector-curvature="0"/>
            <path
                    id="path1153"
                    d="m 464.91085,647.00598 c -6.28195,0 -11.33935,5.0574 -11.33935,11.33936 v 87.69026 h 22.67873 v -87.69026 c 0,-6.28196 -5.0574,-11.33936 -11.33938,-11.33936 z"
                    style="opacity:1;fill:#000080;fill-opacity:1;stroke:none;stroke-width:7.93750048;stroke-miterlimit:4;stroke-dasharray:none"
                    inkscape:connector-curvature="0"/>
        </g>
        <g
                id="g1227"
                inkscape:export-xdpi="86.153587"
                inkscape:export-ydpi="86.153587">
            <path
                    inkscape:connector-curvature="0"
                    style="opacity:1;fill:#ffffff;fill-opacity:1;stroke:none;stroke-width:7.93750048;stroke-miterlimit:4;stroke-dasharray:none"
                    d="m 655.03273,522.27392 c -6.28196,0 -11.33935,5.05739 -11.33935,11.33936 v 224.51756 h 22.67871 V 533.61328 c 0,-6.28197 -5.05739,-11.33936 -11.33936,-11.33936 z"
                    id="path1157"/>
            <path
                    inkscape:connector-curvature="0"
                    style="opacity:1;fill:#0066ff;fill-opacity:1;stroke:none;stroke-width:7.93750048;stroke-miterlimit:4;stroke-dasharray:none"
                    d="m 686.21584,549.48828 c -6.28197,0 -11.33936,5.05739 -11.33936,11.33936 v 197.3032 h 22.67872 v -197.3032 c 0,-6.28197 -5.05739,-11.33936 -11.33936,-11.33936 z"
                    id="path1159"/>
            <path
                    inkscape:connector-curvature="0"
                    style="opacity:1;fill:#0066ff;fill-opacity:1;stroke:none;stroke-width:7.93750048;stroke-miterlimit:4;stroke-dasharray:none"
                    d="m 623.84963,551.75584 c -6.28198,0 -11.33936,5.05739 -11.33936,11.33936 v 195.03564 h 22.67871 V 563.0952 c 0,-6.28197 -5.05738,-11.33936 -11.33935,-11.33936 z"
                    id="path1161"/>
            <path
                    inkscape:connector-curvature="0"
                    style="opacity:1;fill:#000080;fill-opacity:1;stroke:none;stroke-width:7.93750048;stroke-miterlimit:4;stroke-dasharray:none"
                    d="m 592.66652,610.7202 c -6.28197,0 -11.33936,5.05739 -11.33936,11.33936 v 136.07128 h 22.67872 V 622.05956 c 0,-6.28197 -5.0574,-11.33936 -11.33936,-11.33936 z"
                    id="path1163"/>
            <path
                    inkscape:connector-curvature="0"
                    style="opacity:1;fill:#000080;fill-opacity:1;stroke:none;stroke-width:7.93750048;stroke-miterlimit:4;stroke-dasharray:none"
                    d="m 717.39894,659.10122 c -6.28195,0 -11.33935,5.0574 -11.33935,11.33936 v 87.69026 h 22.67873 v -87.69026 c 0,-6.28196 -5.0574,-11.33936 -11.33938,-11.33936 z"
                    id="path1165"/>
        </g>
        <g
                id="g1239"
                inkscape:export-xdpi="86.153587"
                inkscape:export-ydpi="86.153587">
            <path
                    id="path1169"
                    d="m 881.81845,520.76202 c -6.28196,0 -11.33935,5.05739 -11.33935,11.33936 v 224.51756 h 22.67871 V 532.10138 c 0,-6.28197 -5.05739,-11.33936 -11.33936,-11.33936 z"
                    style="opacity:1;fill:#000080;fill-opacity:1;stroke:none;stroke-width:7.93750048;stroke-miterlimit:4;stroke-dasharray:none"
                    inkscape:connector-curvature="0"/>
            <path
                    id="path1171"
                    d="m 913.00156,547.97638 c -6.28197,0 -11.33936,5.05739 -11.33936,11.33936 v 197.3032 h 22.67872 v -197.3032 c 0,-6.28197 -5.05739,-11.33936 -11.33936,-11.33936 z"
                    style="opacity:1;fill:#0066ff;fill-opacity:1;stroke:none;stroke-width:7.93750048;stroke-miterlimit:4;stroke-dasharray:none"
                    inkscape:connector-curvature="0"/>
            <path
                    id="path1173"
                    d="m 850.63535,550.24394 c -6.28198,0 -11.33936,5.05739 -11.33936,11.33936 V 756.61894 H 861.9747 V 561.5833 c 0,-6.28197 -5.05738,-11.33936 -11.33935,-11.33936 z"
                    style="opacity:1;fill:#ffffff;fill-opacity:1;stroke:none;stroke-width:7.93750048;stroke-miterlimit:4;stroke-dasharray:none"
                    inkscape:connector-curvature="0"/>
            <path
                    id="path1175"
                    d="m 819.45224,609.2083 c -6.28197,0 -11.33936,5.05739 -11.33936,11.33936 V 756.61894 H 830.7916 V 620.54766 c 0,-6.28197 -5.0574,-11.33936 -11.33936,-11.33936 z"
                    style="opacity:1;fill:#000080;fill-opacity:1;stroke:none;stroke-width:7.93750048;stroke-miterlimit:4;stroke-dasharray:none"
                    inkscape:connector-curvature="0"/>
            <path
                    id="path1177"
                    d="m 944.18466,657.58932 c -6.28195,0 -11.33935,5.0574 -11.33935,11.33936 v 87.69026 h 22.67873 v -87.69026 c 0,-6.28196 -5.0574,-11.33936 -11.33938,-11.33936 z"
                    style="opacity:1;fill:#000080;fill-opacity:1;stroke:none;stroke-width:7.93750048;stroke-miterlimit:4;stroke-dasharray:none"
                    inkscape:connector-curvature="0"/>
        </g>
        <g
                id="g1251"
                inkscape:export-xdpi="86.153587"
                inkscape:export-ydpi="86.153587">
            <path
                    inkscape:connector-curvature="0"
                    style="opacity:1;fill:#000080;fill-opacity:1;stroke:none;stroke-width:7.93750048;stroke-miterlimit:4;stroke-dasharray:none"
                    d="m 1119.1875,522.27392 c -6.282,0 -11.3394,5.05739 -11.3394,11.33936 v 224.51756 h 22.6788 V 533.61328 c 0,-6.28197 -5.0574,-11.33936 -11.3394,-11.33936 z"
                    id="path1181"/>
            <path
                    inkscape:connector-curvature="0"
                    style="opacity:1;fill:#0066ff;fill-opacity:1;stroke:none;stroke-width:7.93750048;stroke-miterlimit:4;stroke-dasharray:none"
                    d="m 1150.3706,549.48828 c -6.282,0 -11.3393,5.05739 -11.3393,11.33936 v 197.3032 h 22.6787 v -197.3032 c 0,-6.28197 -5.0574,-11.33936 -11.3394,-11.33936 z"
                    id="path1183"/>
            <path
                    inkscape:connector-curvature="0"
                    style="opacity:1;fill:#0066ff;fill-opacity:1;stroke:none;stroke-width:7.93750048;stroke-miterlimit:4;stroke-dasharray:none"
                    d="m 1088.0044,551.75584 c -6.282,0 -11.3394,5.05739 -11.3394,11.33936 v 195.03564 h 22.6788 V 563.0952 c 0,-6.28197 -5.0574,-11.33936 -11.3394,-11.33936 z"
                    id="path1185"/>
            <path
                    inkscape:connector-curvature="0"
                    style="opacity:1;fill:#ffffff;fill-opacity:1;stroke:none;stroke-width:7.93750048;stroke-miterlimit:4;stroke-dasharray:none"
                    d="m 1056.8213,610.7202 c -6.282,0 -11.3394,5.05739 -11.3394,11.33936 v 136.07128 h 22.6787 V 622.05956 c 0,-6.28197 -5.0574,-11.33936 -11.3393,-11.33936 z"
                    id="path1187"/>
            <path
                    inkscape:connector-curvature="0"
                    style="opacity:1;fill:#000080;fill-opacity:1;stroke:none;stroke-width:7.93750048;stroke-miterlimit:4;stroke-dasharray:none"
                    d="m 1181.5537,659.10122 c -6.2819,0 -11.3393,5.0574 -11.3393,11.33936 v 87.69026 h 22.6787 v -87.69026 c 0,-6.28196 -5.0574,-11.33936 -11.3394,-11.33936 z"
                    id="path1189"/>
        </g>
    </g>
</svg>
